<svg xmlns="http://www.w3.org/2000/svg" viewBox="0 0 24 24"><path d="M8.07 24a2.85 2.85 0 0 1-2.74-3.6H5.3l.1-.22L12.4 2c.1-.27.06-.91 0-1.27a.49.49 0 0 1 .01-.24l.01-.02V.46l.02-.02c.1-.3.45-.44 1-.44.68 0 1.6.21 2.55.57.8.31 1.53.7 2.04 1.08.6.45.84.85.7 1.2l-.03.04-.01.02a.76.76 0 0 1-.15.16c-.32.27-.77.74-.84.95l-7.06 18.42h-.02a2.87 2.87 0 0 1-2.54 1.55h-.01V24zM5.9 20.28l-.02.05a2.36 2.36 0 0 0 2.2 3.17c.97 0 1.83-.58 2.19-1.5l.02-.06 6.96-18.09a4.4 4.4 0 0 1 .98-1.14l.02-.01c0-.02.02-.02.02-.03 0-.06-.07-.27-.56-.65a8 8 0 0 0-1.9-1 7.52 7.52 0 0 0-2.37-.54c-.4 0-.53.08-.55.12v.04c.02.1.15 1.04-.03 1.52L5.89 20.28zm8.95-11.5s-.97 1.1-1.85 1.5c-.88.4-1.53.3-2.32.76-.79.46-1.18 1.1-1.18 1.1L6.26 20.5c-.35.95.17 2.05 1.13 2.42.95.37 2.03-.12 2.4-1.05l5.04-13.1zM9.9 18.76c.1-.04.23 0 .27.1.04.1 0 .23-.1.27-.1.04-.23 0-.27-.1a.2.2 0 0 1 .1-.27zm-1-1.8a.3.3 0 0 1-.4-.16.3.3 0 0 1 .15-.4.3.3 0 0 1 .4.16c.07.15 0 .31-.16.39zm.28-1.1a.58.58 0 0 1 .28-.76c.29-.12.62 0 .75.29.12.29 0 .62-.28.76-.3.12-.63 0-.77-.29h.02zm2.42-2.26a.3.3 0 0 1 .4.15.3.3 0 0 1-.15.4.3.3 0 0 1-.4-.15.3.3 0 0 1 .15-.4zm-1.29-1.37c.1-.05.23 0 .27.1.04.1 0 .23-.1.27-.11.04-.23 0-.27-.1a.2.2 0 0 1 .1-.27zm3.37-11.09c.1-.26 1-.16 2 .23 1 .38 1.72.9 1.63 1.17-.1.26-1 .16-2-.22-1-.39-1.73-.91-1.63-1.18z"/></svg>