<svg xmlns="http://www.w3.org/2000/svg" width="512" height="512" viewBox="0 0 512 512">
  <path fill="#333" d="M0 0h512v512H0z"/>
  <path d="M269 59.2c-.2.7-.2 1.5 0 2.3 0 0 2.5 16.7-.4 24l-121 314.7a45 45 0 0 0 84.1 32.3l121-314.6c2.4-6.2 15.9-18 15.9-18 .6-.6 1.2-1.2 1.5-1.9l.3-.5c3.1-8-17-23.4-45-34.1-28-10.8-53.1-13-56.2-4.8l-.1.4v.2z" opacity=".3"/>
  <linearGradient id="a" x1="206.5" x2="283.1" y1="215.3" y2="291.9" gradientTransform="rotate(-24 255.8 252.8)" gradientUnits="userSpaceOnUse">
    <stop offset="0" stop-color="#919191"/>
    <stop offset="1" stop-color="#fff"/>
  </linearGradient>
  <path fill="url(#a)" d="M265.5 56.5c-.2.7-.2 1.5 0 2.3 0 0 2.5 16.7-.3 24l-121 314.7a45 45 0 0 0 84 32.3l121-314.6c2.4-6.1 15.9-18 15.9-18 .7-.6 1.2-1.2 1.5-1.8v-.2c.2 0 .2-.2.3-.4 3.1-8-17-23.4-45-34.1-28-10.8-53.1-12.9-56.2-4.8l-.1.4v.2z"/>
  <linearGradient id="b" x1="177.6" x2="224" y1="273.8" y2="320.2" gradientTransform="rotate(-24 255.8 252.8)" gradientUnits="userSpaceOnUse">
    <stop offset="0" stop-color="#900"/>
    <stop offset="1" stop-color="#e80000"/>
  </linearGradient>
  <path fill="url(#b)" d="M303.5 198.8l-87.3 227a32.6 32.6 0 0 1-41.7 18.3 33.3 33.3 0 0 1-19.5-42l55.8-145s7-11.1 20.6-19.1c13.7-8 25-6.3 40.1-13 15.2-6.8 32-26.2 32-26.2z"/>
  <ellipse cx="316" cy="76.2" fill="#333" rx="33.6" ry="8.8" transform="rotate(21 316 76.2)"/>
  <path fill="#FFF" d="M265.5 58.8s2.5 16.8-.4 24l-121 314.7a45 45 0 0 0 38.2 60.6 45 45 0 0 1-15-51.7L285.7 98s-16.1-15.2-20.3-39.2z" opacity=".3"/>
  <g fill="#FFF">
    <circle cx="226.5" cy="261.8" r="3.5" opacity=".5"/>
    <circle cx="249.5" cy="287.2" r="5.3" opacity=".5"/>
    <circle cx="214.4" cy="317.5" r="9.9" opacity=".5"/>
    <circle cx="198.4" cy="335.8" r="5.3" opacity=".5"/>
    <circle cx="219.4" cy="375" r="3.5" opacity=".5"/>
  </g>
</svg>
