<svg xmlns="http://www.w3.org/2000/svg" width="522.5" height="522.5" viewBox="0 0 522.5 522.5">
  <path d="M325.8 70.5L308 65.7a8 8 0 0 0-6.8.7 9.3 9.3 0 0 0-4.4 5.5L190.4 440.5c-.7 2.5-.5 4.8.7 7 1.3 2.2 3.1 3.7 5.6 4.4l17.7 5a8 8 0 0 0 6.7-.8c2.2-1.2 3.7-3.1 4.4-5.6L332 82c.8-2.4.6-4.8-.7-7a9.3 9.3 0 0 0-5.5-4.4zM166.2 142.5a9 9 0 0 0-2.9-6.6L149 121.6a9 9 0 0 0-13.1 0l-133 133a9 9 0 0 0 0 13.2l133 133a9 9 0 0 0 13.1 0l14.3-14.2a9 9 0 0 0 0-13.2L51.1 261.2 163.3 149a9 9 0 0 0 2.9-6.5zM519.6 254.7l-133-133a9 9 0 0 0-6.6-3 9 9 0 0 0-6.6 3l-14.2 14.2a9 9 0 0 0 0 13.1l112.2 112.2-112.2 112.2a9 9 0 0 0 0 13.2l14.2 14.2a9 9 0 0 0 13.2 0l133-133a9 9 0 0 0 0-13.1z"/>
</svg>
