<svg xmlns="http://www.w3.org/2000/svg" viewBox="0 0 512 512"><path fill="#564d80" d="M414.5 0H252.7l-75 256 75 256h161.8c33 0 60-27 60-60V60c0-33-27-60-60-60z"/><path fill="#8062a7" d="M97.5 0c-33 0-60 27-60 60v392c0 33 27 60 60 60h155.3V0H97.4z"/><path fill="#eff6f9" d="M348 213.2A81.2 81.2 0 0 0 282 196l-29.1 4.8-30 30.8 30 30 39-6.5c6.8-1.1 13 .3 17.4 4 4.4 3.7 6.8 9.6 6.8 16.6V452h60V275.6a81.2 81.2 0 0 0-28-62.4z"/><g fill="#fff"><path d="M196 210.2V60h-60v221l116.8-19.5v-60.8zM136 349l60 45-60 45z"/></g><path fill="#eff6f9" d="M369.2 120.9C373.7 101 376 80.7 376 60h-60c0 21.2-3.1 41.6-9 60.9h62.2z"/></svg>