<svg xmlns="http://www.w3.org/2000/svg" viewBox="0 0 512 512"><path d="M488.5 4.3C486.4 2 484.3 0 480 0H32c-2.1 0-6.4 2.1-8.5 4.3-2.2 2.1-2.2 4.2-2.2 8.5L64 439.5c0 4.2 4.3 8.5 6.4 8.5l192 64h8.5l170.7-64c4.3-2.1 6.4-4.3 6.4-8.5l42.7-426.7c0-2.1 0-6.4-2.2-8.5zM256 386c0 2.2-2.1 6.4-4.3 8.6s-4.4 2.4-6.5 2.4l-2-.3-74.7-21.3a16.7 16.7 0 0 1-8.5-8.6l-10.7-53.3c-2.1-6.4 2.2-10.7 8.6-12.8 6.4-2.1 10.6 2.1 12.8 8.5l8.5 47 55.5 14.9v-241H117.3c-6.4 0-10.6-4.3-10.6-10.7 0-6.4 4.2-10.7 10.6-10.7h128c6.4 0 10.7 4.3 10.7 10.7V386zm149.3-264.5l-10.6 42.7c-2.2 6.4-6.5 9.5-12.8 8.5-6.7-1-9.2-6.4-8.6-12.8.8-7.6 6.4-29.9 6.4-29.9h-83.2v106.7h74.7c2.1 0 6.4 2.1 8.5 4.3 2.2 2.1 2.2 6.4 2.2 8.5l-21.4 117.3c0 4.3-4.2 6.4-6.4 8.6l-64 21.3c-2.1 0-9.9 3-14.9-6.4-2.1-6.4 2.1-10.7 6.4-12.8l57.6-19.2 17-98.1h-72.5c-6.4 0-10.6-4.3-10.6-10.7v-128c0-6.4 4.2-10.7 10.6-10.7h106.7c4.3 0 7.2 1 10 2.1 5.9 2.4 5 6.5 5 8.6z"/></svg>