<svg xmlns="http://www.w3.org/2000/svg" viewBox="0 0 512 512"><circle cx="256" cy="256" r="256" fill="#C00"/><g fill="#FFF"><path d="M130.6 403h156.2s-34.6-78.7-25.8-150.9 65.8-105 98.1-108.6 50 16.4 50 16.4l7-10.6s-46.5-47-105.2-41.7c-58.7 5.3-99.2 44-124.5 91-25.2 47-39.9 80-49.9 129.2-10 49.4-5.9 75.2-5.9 75.2zM99.5 324.3l30.5 2.3-5.3 30.5-28.8-3.5 3.6-29.3zM147.6 259.7l8.2-22.9-27-10.6L120 251l27.6 8.8zM185.8 181.1l16-18.8-20.6-13.5-16.5 18.2 21.1 14.1zM227.5 108.3l14.1 17 19.4-11.2-14-15.9-19.5 10.1zM296.2 89l3.5 17 24.1-.7-2.4-15.3-25.2-1z"/><path d="M377.8 107.1l-.6 10.6 16.4 8.8 3.5-5.3-19.3-14zM374.3 152.3v8.8l16 1.8v-7l-16-3.6zM323.8 160l7.6 14 11.2-8.8-2.3-9.4-16.5 4.1zM299.7 178.1l11.7 17.6-7 12.3-17-18.8 12.3-11zM276.2 227l-7.6 15.2 20 17 4.7-19.4-17-12.9zM268 280.3l-1.2 20.5 24.7 10.6-1.2-19.4-22.3-11.7zM275.1 353.1l6 21.1 31 1.8-11.2-22.9h-25.8z"/></g></svg>