<svg xmlns="http://www.w3.org/2000/svg" viewBox="0 0 512 512"><path fill="#f2f2f2" d="M512 256A256 256 0 0 1 47 403.9a255.3 255.3 0 0 1-39-84A256.4 256.4 0 0 1 256 0a255.4 255.4 0 0 1 237.7 160.8A255.4 255.4 0 0 1 512 256z"/><path fill="#9b0a0e" d="M493.7 160.8v.6a136 136 0 0 1-11.8 40.4L371.7 482.4 76.5 413.1a143.4 143.4 0 0 1-29.5-9.2 254.9 254.9 0 0 1-39-84c1-3.7 2.3-9.4 4.2-16.3 7.2-26.9 21-72.9 37.8-97l1.6 56 110.3 7.3 149.6-71.1L376 104l-28.6-45.7c47.7 11.5 78 22 97 30.2 3.1 1.4 6 2.7 8.5 4 19.1 9.1 22.8 14.7 22.8 14.7 6.3 5.4 11 11.6 13.9 18.7a72.3 72.3 0 0 1 4.1 35z"/><ellipse cx="207.5" cy="159.5" fill="#ef0e13" rx="74.1" ry="167.3" transform="scale(-1) rotate(63.1 259.9 -338)"/><g fill="#f5655e"><path d="M301.2 369.1l70.5 113.2L186 409.4c36.7-7.5 76-20.9 115.2-40.3zM50 206.5l1.7 56-39.5 41c7.2-26.8 21-72.8 37.8-97z"/></g><g fill="#950c10"><path d="M51.6 262.5L17.8 350c-3.9-9.7-7.1-19.8-9.8-30a696 696 0 0 1 4.2-16.3l39.4-41zM376 104l117.7 57.4a136 136 0 0 1-11.8 40.4 223 223 0 0 1-18.3 32.5L376 104z"/></g><g fill="#ef0e13"><path d="M481.9 201.9L371.7 482.3l28.2-177.9c26.4-22.6 48-46.6 63.7-70 7.4-11 13.5-22 18.3-32.5z"/><path d="M376 104l87.6 130.3-152.1-35.5z"/></g><path fill="#f5655e" d="M444.4 88.5L376 104l-28.6-45.8c47.7 11.6 78 22 97 30.3z"/><path fill="#950c10" d="M311.5 198.8l88.4 105.6a476 476 0 0 1-98.7 64.7l10.3-170.3z"/><path fill="#ef0e13" d="M311.5 198.8l-10.3 170.3L162 269.9z"/><path fill="#950c10" d="M162 269.9L301.2 369A482.3 482.3 0 0 1 186 409.4L162 270z"/><path fill="#f5655e" d="M162 269.9L65.9 410.6 51.7 262.5z"/></svg>