<svg xmlns="http://www.w3.org/2000/svg" viewBox="0 0 55 55"><path d="M52.4 8.5C51.2 4.2 42.6 0 27.5 0 12.5 0 3.8 4.2 2.6 8.5l-.1.5v37l.1.5C3.8 51.3 14.4 55 27.5 55c13.1 0 23.7-3.6 24.9-8.5l.1-.5V9l-.1-.5zm-2 25.5a2.5 2.5 0 0 1-.2.6 3.4 3.4 0 0 1-.5.7l-.4.4-.2.2-.5.4-.3.2-.7.5-.2.1-1 .5h-.1l-1.2.6a55 55 0 0 1-10.6 2.4H34l-1.9.2h-.8l-1.5.2a77.1 77.1 0 0 1-4.8 0l-1.5-.1h-.8l-1.9-.2h-.3l-2-.3h-.1a38.8 38.8 0 0 1-9.8-2.7l-.1-.1a16 16 0 0 1-1-.5l-.2-.1-.7-.5-.3-.2L6 36l-.2-.2a5.2 5.2 0 0 1-.9-1 3 3 0 0 1-.2-.7l-.1-.5v-.3-7.9c.3.3.5.5.8.6C9 28.8 16.6 31 27.5 31c10.9 0 18.4-2.2 22.2-5l.8-.7V34zm.1-20.7V22a2.5 2.5 0 0 1-.3.6 3.4 3.4 0 0 1-.5.7l-.4.4-.2.2-.5.4-.3.2-.7.5-.2.1-1 .5h-.1l-1.2.6a55 55 0 0 1-10.6 2.4H34l-1.9.2h-.8l-1.5.2a77.1 77.1 0 0 1-4.8 0l-1.5-.1h-.8l-1.9-.2h-.3l-2-.3h-.1a38.8 38.8 0 0 1-9.8-2.7l-.1-.1a16 16 0 0 1-1-.5l-.2-.1-.7-.5-.3-.2L6 24l-.2-.2a5.2 5.2 0 0 1-.9-1 3 3 0 0 1-.2-.7l-.1-.5v-.3-7.9l.4.3.2.2 1 .7.2.1A17.1 17.1 0 0 0 8.8 16H9l1.4.7.5.1 1.3.4.4.2 1.9.4h.2a45.6 45.6 0 0 0 4.1.8h.5l2.3.3h.6l2 .1h.7a78.3 78.3 0 0 0 5.3 0h2.7l.5-.1 2.3-.3h.5a54 54 0 0 0 4-.7h.3l1.9-.5.4-.2c.5-.1 1-.2 1.3-.4l.5-.1L46 16h.2a21.4 21.4 0 0 0 2.5-1.4l.2-.1 1-.7.2-.2.4-.3zM27.5 2c13.6 0 23 4 23 7.5s-9.4 7.5-23 7.5-23-4-23-7.5S13.9 2 27.5 2zm23 43.7v.1c-.6 3.5-10 7.2-23 7.2s-22.4-3.7-23-7.2v-8.5c.3.3.5.5.8.6C9 40.8 16.6 43 27.5 43c10.9 0 18.4-2.2 22.2-5l.8-.7v8.4z"/></svg>