<svg xmlns="http://www.w3.org/2000/svg" viewBox="0 0 512 512"><g fill="#fff"><path d="M259.3 110.2v-2.4c0-11.6 7.5-21 16.8-21 9.6 0 17 9.2 17 21 0 2.7-.4 5.2-1.1 7.6a30 30 0 0 0 4.4-15.9c0-14-9-25.5-20-25.5-11.1 0-20.1 11.5-20.1 25.5 0 3.5.5 6.9 1.6 10.1l1.4.6zM209.4 88c.6-.2 1.2-.2 1.7-.2 7.4 0 14 7.3 15.8 17.3l.4 3.3 1.4-.7c.3-1.7.4-3.4.4-5 0-13-6.9-24-15-24-7 0-12.8 7.7-14.5 18 2-4.7 5.4-8 9.8-8.8zM349 349.9a146 146 0 0 0 2.2-52.6c-4.5-30.8-48-127-55.4-137.7-4.4.6-16 7.3-25.3 12.7-11 6.3-22.2 12.8-29.9 15-1.6.5-3.2.7-5 .7-11.2 0-23.3-9.4-31.1-16.9a84.7 84.7 0 0 1-17.4 42.3c-5.3 6-10 19.8-14.6 33.2-4.2 12.4-8.5 25.2-13.9 33.6-10.8 16.8-17 49.5-9.1 68.1 3.8 9 17.6 19.7 29.8 29.1 14.9 11.5 27.8 21.4 29.2 31.4a19.4 19.4 0 0 1-11 21.5l16 18.3c2.5.4 8.4 1 17.7 1 11 0 23-.9 36-2.8 31.7-4.7 53.8-30.8 58.2-36.4 0-7.4.2-40.1 2.4-50.4.8-4 4-10.5 16.1-10.5 1.9 0 3.7.2 5.2.4z"/></g><g fill="#e69629"><path d="M210.5 147c.6 2.5 6.1 8.7 14.7 14.3l3.4 2.3c4.8 3.2 6.9 4.6 10.3 4.1 5-.7 23.6-11.9 31.5-16.7l2-1.2c3-1.8 5.3-3 7.2-4 3.7-2 4-2.3 4.2-3-.4-1-3.9-4-10.6-6.3l-8.7-3.4a179.5 179.5 0 0 0-22.7-8c-3.6 0-10.8 4.5-18 11.2-3.6 3.2-10.5 8.6-13.3 10.8zM147.1 395.5c-3-5.2-5.8-9.7-7.2-12-5.8-8.9-15.7-18.9-20.5-18.9-.4 0-.6.1-.7.2-2.6 1.5-4.7 5.9-6.8 10.1-2.8 5.9-6 12.5-12 16.2-4.4 2.6-11.2 4-17.7 5.5-4.6 1-15.5 3.4-16 5.6-.7 3 0 6 .8 9.9 1 4.6 2.2 10.3 1.2 17.2a91 91 0 0 1-3.4 12.7c-1.8 5.6-3.8 12-2 14 2.1 1.9 15.1 4 24.7 5.5 12 2 24.3 4 31.9 7.2l2 .8c13.6 5.7 38.9 16.3 51.6 16.3 1.2 0 2.2 0 3-.2 2.2-1.5 11.5-8.2 13.3-16.5 2.4-10.6-7.4-23-13.4-29.4-6.7-7.2-19.4-28.6-28.8-44.2zM435.8 421l-1.6-.8c-10.7-5.7-16.3-21-15.6-32.6a13 13 0 0 0-.5-5c-2 3.2-4.8 7.3-8.2 10.7a51.7 51.7 0 0 1-32 11.8c-4.7 0-9-.8-12.7-2.5-12.5-5.4-14.2-21-14.2-28.9l-.6.2c-.7 2.7 0 11.8.5 18 .3 3.2.6 6.6.7 9.7.7 13.7-3.6 37-7.4 54-3.6 16.8 3 28.5 11.2 31 .7.3 1.6.4 2.5.4 7.4 0 19.8-7.7 30.8-19.3 7.8-8.2 25.1-17 40.4-24.8 8.6-4.4 17.6-9 20-11.3.7-.5.7-.8.7-.8-.1-2.5-10.2-7.8-14-9.8z"/></g><path d="M461 411c-15-6-21.4-14.2-20.7-26.4A40.6 40.6 0 0 0 429 356c2.3-8.9 9-39.4 0-66-9.7-28.4-39.5-71.8-70.2-114.5-12.5-17.5-13.1-36.5-13.8-58.6-.7-21-1.4-44.9-13.1-71.4A73.8 73.8 0 0 0 261.6 0c-19 0-38.4 6-53.4 16.3-30.6 21.1-26.6 67.3-24 97.8.5 4.2.8 8.1 1 11.5 1.8 30 .2 45.7-2 50.5-1.3 3.1-8.1 12-15.3 21.5-7.4 9.7-15.8 20.8-22.7 31-8.2 12.5-14.8 31.4-21.2 49.8-4.7 13.4-9.1 26-13.4 33.6a45.8 45.8 0 0 0-4.5 34.4 35.4 35.4 0 0 0-11.3 14.4c-4.6 9.7-13.9 15-33.1 18.7-8.9 1.8-15 5.5-18.1 11-4.7 8-2.2 18.2.1 25 3.5 10.2 1.3 16.7-2.5 28.3-1 2.7-2 5.8-3 9.1-1.6 5.3-1 10.2 1.8 14.4 7.2 11 28.5 15 50.3 17.6a194 194 0 0 1 41.1 11.8c13.5 5 27.5 10 40.2 11.6 2 .2 3.9.4 5.7.4a33.5 33.5 0 0 0 30.6-18c7-1.4 30.7-6 55.2-6.5 24.5-.7 48.2 4.1 54.9 5.6 2 4 7.6 13.3 16.5 18a40.1 40.1 0 0 0 18.6 4.2c7.4 0 21.5-1.8 32.7-13.5 11.1-11.8 39-26.9 59.2-37.9l12.5-6.8c11.4-6.3 17.7-15.3 17.1-24.8a21 21 0 0 0-13.5-18zM276.4 74c11.1 0 20.1 11.5 20.1 25.5a30 30 0 0 1-4.4 16c.7-2.5 1.1-5 1.1-7.7 0-11.8-7.4-21-17-21-9.3 0-16.9 9.4-16.9 21l.1 2.4-1.4-.6c-1-3.2-1.6-6.6-1.6-10 0-14.1 9-25.6 20-25.6zm-34 51.2c4.2.7 14.6 4.9 22.2 7.9l8.7 3.4c6.7 2.3 10.2 5.2 10.6 6.3-.1.7-.5 1-4.2 3-2 1-4.3 2.2-7.2 4l-2 1.2c-7.9 4.8-26.4 16-31.5 16.7-3.4.5-5.5-.9-10.3-4l-3.4-2.4c-8.6-5.6-14-11.8-14.7-14.2a289 289 0 0 0 13.3-10.8c7.2-6.7 14.4-11.2 18-11.2h.5zm-28.2-46.5c8.1 0 15 11 15 24 0 1.6-.1 3.2-.4 5l-1.4.7c0-1.1-.2-2.2-.4-3.3-1.7-10-8.4-17.3-15.8-17.3l-1.7.1c-4.4.8-7.9 4-9.8 8.8 1.7-10.3 7.5-18 14.5-18zm-24.8 390.4c-1.8 8.3-11.1 15-13.3 16.5l-3 .2c-12.7 0-38-10.6-51.6-16.3l-2-.8c-7.6-3.2-20-5.2-32-7.2C78 460 65 458 62.8 456c-1.7-2 .3-8.4 2.1-14 1.3-4 2.6-8.3 3.4-12.7 1-7-.2-12.6-1.2-17.2-.8-3.9-1.5-7-.8-10 .5-2.1 11.4-4.5 16-5.5 6.6-1.4 13.3-2.9 17.7-5.5 6-3.7 9.2-10.3 12-16.2 2.1-4.2 4.2-8.6 6.8-10 .1-.2.3-.3.7-.3 4.8 0 14.7 10 20.5 19l7.2 12c9.4 15.5 22.2 37 28.8 44 6 6.5 15.8 19 13.4 29.5zm138.5-109c-2.2 10.2-2.4 43-2.4 50.3-4.4 5.6-26.5 31.7-58.3 36.4-13 2-25 2.9-35.9 2.9-9.3 0-15.2-.7-17.7-1.1l-16-18.3a19.4 19.4 0 0 0 11-21.5c-1.4-10-14.3-19.9-29.2-31.4-12.2-9.4-26-20-29.8-29-7.9-18.7-1.7-51.4 9.1-68.2 5.4-8.5 9.7-21.2 14-33.6 4.5-13.4 9.2-27.2 14.5-33.2 8.3-9.5 16-27.8 17.4-42.3 7.8 7.5 20 17 31.1 17 1.8 0 3.4-.3 5-.7 7.7-2.3 19-8.8 29.9-15 9.4-5.5 21-12.2 25.3-12.8 7.5 10.7 51 106.9 55.4 137.7A146 146 0 0 1 349 350c-1.5-.2-3.3-.4-5.2-.4-12 0-15.3 6.6-16.1 10.5zm121.4 71.5c-2.5 2.3-11.5 6.9-20 11.3-15.4 7.8-32.7 16.7-40.5 24.8-11 11.6-23.4 19.3-30.8 19.3-1 0-1.8 0-2.5-.3-8.1-2.6-14.8-14.3-11.2-31 3.8-17.1 8.1-40.4 7.4-54a349 349 0 0 0-.7-9.8 89.9 89.9 0 0 1-.5-18l.6-.2c0 7.9 1.7 23.5 14.2 29 3.7 1.6 8 2.4 12.6 2.4 12.6 0 26.5-6.1 32.1-11.8 3.4-3.4 6.2-7.5 8.2-10.7.4 1.2.7 2.9.5 5-.7 11.6 5 27 15.6 32.6l1.6.8c3.8 2 13.9 7.3 14 9.8 0 0 0 .3-.6.8z"/></svg>