<svg xmlns="http://www.w3.org/2000/svg" version="1.1" x="0px" y="0px" viewBox="0 0 512 512" style="enable-background:new 0 0 512 512;" xml:space="preserve">
  <path style="fill:#564D80;" d="M414.5,0H252.75l-75,256l75,256H414.5c33.084,0,60-26.916,60-60V60C474.5,26.916,447.584,0,414.5,0z" fill="none"/>
  <path style="fill:#8062A7;" d="M97.5,0c-33.084,0-60,26.916-60,60v392c0,33.084,26.916,60,60,60h155.25V0H97.5z" fill="none"/>
  <path style="fill:#EFF6F9;" d="M348.006,213.218c-17.79-15.071-41.893-21.397-66.121-17.36l-29.135,4.856l-30,30.828l30,30 l38.998-6.5c6.897-1.15,13.106,0.256,17.476,3.958c4.37,3.702,6.776,9.593,6.776,16.587V452h60V275.586 C376,251.021,365.797,228.289,348.006,213.218z" fill="none"/>
  <g>
    <polygon style="fill:#FFFFFF;" points="196,210.172 196,60 136,60 136,281 252.75,261.541 252.75,200.714" fill="none"/>
    <polygon style="fill:#FFFFFF;" points="136,349 196,394 136,439" fill="none"/>
  </g>
  <path style="fill:#EFF6F9;" d="M369.153,120.858C373.665,101.123,376,80.743,376,60h-60c0,21.152-3.147,41.579-8.969,60.858H369.153 z" fill="none"/>
</svg>