<svg height="509pt" viewBox="-84 0 509 509.06641" width="509pt" xmlns="http://www.w3.org/2000/svg"><path d="m335.117188 237.957031c-1.03125-1.035156-103.664063-104.796875-144.167969-226.296875-1.65625-4.925781-5.0625-9.070312-9.570313-11.65624975v211.76562475c20.800782 5.371094 34.363282 25.371094 31.65625 46.679688-2.707031 21.3125-20.839844 37.289062-42.320312 37.289062-21.484375 0-39.613282-15.976562-42.320313-37.289062-2.707031-21.308594 10.851563-41.308594 31.65625-46.679688v-211.76562475c-4.507812 2.58593775-7.910156 6.73046875-9.570312 11.65234375-40.503907 121.503906-143.132813 225.265625-144.160157 226.292969-6.171874 6.167969-7.964843 15.46875-4.53125 23.484375l63.988282 149.308594c3.363281 7.847656 11.082031 12.9375 19.617187 12.933593h170.640625c8.535156 0 16.242188-5.085937 19.605469-12.933593l63.992187-149.308594c3.429688-8.011719 1.640626-17.304688-4.515624-23.476563zm0 0"/><path d="m298.695312 445.003906h-255.960937c-11.78125 0-21.332031 9.550782-21.332031 21.328125v42.664063h298.625v-42.664063c0-11.777343-9.550782-21.328125-21.332032-21.328125zm0 0"/></svg>