<svg xmlns="http://www.w3.org/2000/svg" viewBox="0 0 31 31">
  <path d="M25.1 21.5l-.3-.1L19 16a.5.5 0 1 1 .7-.8l5.8 5.4a.5.5 0 0 1-.4 1zM5.9 21.5a.5.5 0 0 1-.3-.9l5.7-5.4a.5.5 0 0 1 .7.8l-5.8 5.4-.3.1z"/>
  <path d="M28.5 26.5h-26A2.5 2.5 0 0 1 0 24V7c0-1.4 1.1-2.5 2.5-2.5h26C30 4.5 31 5.6 31 7v17c0 1.4-1.1 2.5-2.5 2.5zm-26-21C1.7 5.5 1 6.2 1 7v17c0 .9.7 1.5 1.5 1.5h26c.8 0 1.5-.6 1.5-1.5V7c0-.8-.7-1.5-1.5-1.5h-26z"/>
  <path d="M15.5 18c-.7 0-1.3-.2-1.8-.6L.8 6.2a.5.5 0 0 1 0-.8c.2-.2.5-.2.7 0l12.8 11.2c.7.6 1.7.6 2.4 0L29.5 5.4a.5.5 0 0 1 .7.8L17.3 17.4c-.5.4-1.1.6-1.8.6z"/>
</svg>
